<svg width="512" height="512" viewBox="0 0 512 512" fill="none" xmlns="http://www.w3.org/2000/svg">
<g clip-path="url(#clip0_11_2)">
<path d="M239 0H275V0.25L290.25 2L302 3.75L314 6.25L322 8.25L330.75 10.75L341.5 14.25L347.5 16.5L355.5 19.75L363 23L371.75 27.25L377.5 30.25L382.75 33.25L389.25 37L399.25 43.5L404.25 47L408.75 50.25L413.25 53.75L416.75 56.5L419.5 58.75L426.5 64.75L434 71.75L442 79.75L443.75 81.75L446 84L448.25 86.75L451 89.75L453.25 92.5L456.75 96.75L459.25 100L463 105L466.5 110L469.5 114.25L472.25 118.5L475.75 124.25L479 129.75L482.25 135.75L484.75 140.5L487.5 146L491.5 155L494.75 162.75L497.5 170.25L500.5 179.25L503 187.5L506 199.5L508.25 210.75L510 222.25L511.5 235.75H512V275.75L511.5 275.5L510.5 285.5L509 296.75L507.5 305.25L505.5 314.5L503.5 322.5L501.5 329.5L498.75 338.25L495.5 347.25L491.75 356.5L488.5 363.75L485.5 370L483 375L479.75 380.75L477.25 385.25L474.25 390.25L471.5 394.5L469.75 397.25L467.75 400.25L464.75 404.5L462.25 408L459 412.25L456 416L454.25 418.25L448.25 425.25L445.5 428.25L443.75 430.25L441.5 432.5L439.75 434.5L433.25 441L431.25 442.75L428.75 445.25L426.75 447L423.25 450L419.5 453.25L416.75 455.5L412.5 458.75L408 462.25L400.5 467.5L396 470.5L390.5 474L386.75 476.25L381.5 479.25L377.5 481.5L371 485L363.25 488.75L357 491.5L349 494.75L341.5 497.5L332.5 500.5L324 503L312 506L300.75 508.25L291 509.75L276.5 511.5L272 512H237L236 511.5L219 509.5L210 508L198.75 505.75L187.75 503L177 499.75L167.5 496.5L158 492.75L151.75 490L143 486L139.25 484L135.25 482L129.25 478.75L123 475L117 471.25L113.25 468.75L104.75 462.75L101.75 460.5L98 457.5L94.5 454.75L91.75 452.5L89.25 450.25L86.75 448.25L83 444.75L80 442L77.25 439.25L75.25 437.5L73.25 435.5V435L72.5 434.75L70.75 432.75L67.5 429.5L65.75 427.5L63.25 424.75L61 422L58.5 419.25L55.25 415L52.75 412L49.75 408L43.75 399.5L41.25 395.75L38.25 391L35.5 386.5L31.75 380L28.75 374.5L23.75 364.5L20.5 357.25L16.75 348L14 340.5L11 331.5L8.5 322.75L6 312.75L3.75 301.5L2 290.25L0.75 279.5L0.25 274.25L0 274V238L0.5 235L2 221.5L3.5 212L5.25 202.75L7.75 192L10.25 183L13.25 173.5L16.25 165.25L20.25 155.25L24.25 146.5L27.75 139.25L31.5 132.25L34.5 127L37.5 122L40.75 117L43.5 112.75L46.5 108.5L48.5 105.75L51 102.25L54.5 97.75L57.75 93.75L60 91L63 87.5L63.5 86.75H64L64.5 85.75L67.75 82.25L69.5 80.25L71.25 78.5L71.75 77.75H72.25L72.75 76.75L76.75 72.75H77.25L77.75 71.75L79.75 70L82 67.75L84 66L86.5 63.75L88.5 62L92 59L95.5 56.25L99.5 53L102.5 50.75L107 47.5L111.25 44.5L115.75 41.5L122 37.5L128.25 33.75L134.5 30.25L142.75 26L150.5 22.25L158.75 18.75L165.75 16L174.25 13L182 10.5L191 8L200.25 5.75L209 4L221.5 2L232 0.75L239 0ZM284 175.75L280.25 176.25L276.25 177.75L273.5 179.5L271.25 181.5L269 184.75L267 188.75L263.75 196L262 199.5L259.75 204.5L255.25 214.25L251.5 222.5L249.75 226.5L248 230.25L244 238.75L240.25 247L237 254L233.25 262.25L228.75 272L225.75 278.75L224 282.25L220.25 290.5L217.5 296.5L214.5 303L211 310.75L210 313.5L209.5 316.5V319.75L210.25 323.5L212 327.5L214.5 330.75L217.25 333L221.25 335L225.5 336H229.5L233.5 335L236.5 333.75L239.5 331.5L241.5 329.5L243.25 326.75L245.25 322.75L249.5 313.5L252.5 307L256.25 298.75L265.25 279.25L269 271L273.25 261.75L282.25 242.25L286 234L290.25 224.75L294.75 215L296.5 211L298.25 207.25L301 201.25L302.25 197.25L302.5 195.5V192.5L301.75 188.5L300.5 185.5L298.25 182L296.25 180L292.75 177.75L289.5 176.5L287.5 176L284 175.75ZM333.25 185L329.5 186L326 187.75L323.75 189.5L323 190V190.5H322.5V191H322L320 193.75L318.25 197.25L317.25 201.25L317 205L317.75 209.5L319 212.75L320.75 215.5L323.5 218.5L356.25 251.25L357.75 253.75L358 254.5V257.25L357.25 259.25L355.25 261.75L322 295L320 297.75L318.5 300.75L317.5 304.5L317.25 308L317.75 312L319 315.75L321.25 319.5L324.5 322.75L327.75 324.75L330 325.75L334.25 326.75H338.5L343 325.75L347 323.75L349.75 321.5L377.5 293.75L379 292.5L380.5 290.75L382 289.5L383.5 287.75L385 286.5L386.25 285L388 283.5L389.5 281.75L391 280.5L392.75 278.5L395 276L397.25 272.75L399.25 268.75L400.75 264.75L401.75 259V253L401 248.5L399.75 244.25L397.5 239.5L394.75 235.5L391.75 232.25L349.5 190L346.5 187.75L343 186L339 185H333.25ZM172.25 185.25L168.5 186.25L165.5 187.75L162 190.5L120 232.5V233L119.25 233.25L117.5 235.25L115 238.75L112.5 243.5L111 248L110.25 252.5L110 256L110.5 261.25L111.5 265.5L112.75 269L115 273.25L117 276L119.25 278.5L122 281.5L123.5 283H124L124.25 283.75L126.25 285.5L137.75 297L139.25 298.75L140.75 300L141.5 301H142L142.5 302H143L143.25 302.75L145.25 304.5L150.75 310L152.25 311.75L153.75 313L155.25 314.75L156.75 316L157.5 317H158L158.5 318H159L159.5 319H160L160.5 320H161L161.25 320.75L164 323L166.75 324.75L170 326L173.5 326.75H177.25L181 326L184 324.75L187 323L190 320.25L192.25 317L193.75 313.75L194.5 310.25V305L193.5 301L192.25 298.25L190.5 295.5L187.5 292.25L161.25 266H160.75L160.25 265H159.75L159.25 264H158.75L158.25 263L156.75 261.75L154.75 259.25L154 257.5V254.75L155 252.25L156.75 250.25L190 217L192.25 213.75L193.75 210.5L194.5 207.25V201.5L193.5 197.5L191.5 193.5L189.25 190.75L186.25 188.25L182.25 186.25L178.5 185.25H172.25Z" fill="#111827"/>
</g>
<defs>
<clipPath id="clip0_11_2">
<rect width="512" height="512" fill="white"/>
</clipPath>
</defs>
</svg>
